<?xml version="1.0" encoding="UTF-8" standalone="no"?>
<svg
   xmlns:dc="http://purl.org/dc/elements/1.1/"
   xmlns:cc="http://creativecommons.org/ns#"
   xmlns:rdf="http://www.w3.org/1999/02/22-rdf-syntax-ns#"
   xmlns:svg="http://www.w3.org/2000/svg"
   xmlns="http://www.w3.org/2000/svg"
   xmlns:sodipodi="http://sodipodi.sourceforge.net/DTD/sodipodi-0.dtd"
   xmlns:inkscape="http://www.inkscape.org/namespaces/inkscape"
   sodipodi:docname="duck-logo-text-32.svg"
   inkscape:version="1.0beta2 (2b71d25, 2019-12-03)"
   id="svg8"
   version="1.1"
   viewBox="0 0 210 297"
   height="297mm"
   width="210mm">
  <defs
     id="defs2" />
  <sodipodi:namedview
     inkscape:window-maximized="0"
     inkscape:window-y="72"
     inkscape:window-x="641"
     inkscape:window-height="1209"
     inkscape:window-width="1600"
     showgrid="false"
     inkscape:document-rotation="0"
     inkscape:current-layer="layer1"
     inkscape:document-units="mm"
     inkscape:cy="219.28681"
     inkscape:cx="333.00871"
     inkscape:zoom="1.5004828"
     inkscape:pageshadow="2"
     inkscape:pageopacity="0.0"
     borderopacity="1.0"
     bordercolor="#666666"
     pagecolor="#ffffff"
     id="base" />
  <metadata
     id="metadata5">
    <rdf:RDF>
      <cc:Work
         rdf:about="">
        <dc:format>image/svg+xml</dc:format>
        <dc:type
           rdf:resource="http://purl.org/dc/dcmitype/StillImage" />
        <dc:title />
      </cc:Work>
    </rdf:RDF>
  </metadata>
  <g
     id="layer1"
     inkscape:groupmode="layer"
     inkscape:label="Layer 1">
    <path
       inkscape:connector-curvature="0"
       style="fill:#000000;stroke-width:0.0346051"
       d="m 10.554362,8.3956229 c -0.04528,-0.0482 -0.0988,-0.081417 -0.118928,-0.073816 -0.02013,0.0076 -0.105268,-0.050496 -0.189193,-0.1291032 -0.142394,-0.1333697 -0.147453,-0.1354217 -0.07567,-0.030696 0.112691,0.1644201 0.05461,0.2116065 -0.08919,0.072456 C 10.015758,8.1709515 9.9337597,8.1235395 9.8991725,8.1291019 9.8628204,8.1349419 9.7775748,8.0810859 9.6971316,8.0014435 9.5677795,7.8733775 9.5566371,7.8688007 9.5389435,7.9364674 c -0.016744,0.06404 -0.026528,0.067104 -0.081345,0.025512 -0.054024,-0.040992 -0.056328,-0.0406 -0.017328,0.00296 0.024736,0.027632 0.059784,0.05024 0.077864,0.05024 0.01808,0 0.0342,0.015576 0.035816,0.034608 0.0016,0.019032 0.017944,0.052688 0.036288,0.074776 0.045512,0.05484 -0.020176,0.091654 -0.1117177,0.0626 C 9.415681,8.1672195 9.411217,8.1728915 9.443009,8.2322916 9.489073,8.3183692 9.462801,8.3440148 9.3289634,8.3436068 9.1816545,8.3432148 8.8968143,8.1719699 8.7534279,7.9977088 8.6877318,7.9178688 8.5681534,7.7863687 8.4877029,7.7054943 8.3517396,7.5688126 8.318814,7.5542582 8.0205339,7.4989829 7.8440406,7.4662789 7.6607077,7.4347189 7.6131252,7.4288469 7.5655492,7.4230069 7.4513524,7.3851029 7.3593691,7.3446757 7.2673851,7.3042516 7.1824298,7.2711716 7.1705786,7.2711716 c -0.051424,0 -0.5610019,-0.2558912 -0.5610019,-0.2817144 0,-0.015714 -0.073968,-0.067616 -0.1643745,-0.1153457 C 6.3547958,6.8263571 6.1718213,6.7172973 6.0385916,6.6317353 5.9053619,6.5461729 5.7457459,6.4533912 5.683889,6.4255546 5.622033,6.3977146 5.5714226,6.358797 5.5714226,6.3390629 c 0,-0.0476 -0.2634618,-0.220468 -0.3451786,-0.226488 C 5.190868,6.1099749 5.14117,6.0913409 5.1157919,6.0711749 5.0904159,6.0510149 4.986019,6.0072221 4.883807,5.9738652 4.7815941,5.9405052 4.6680733,5.8833214 4.6315381,5.846786 4.560714,5.7759627 4.4111227,5.7026571 4.3256379,5.6968825 4.2970939,5.6949465 4.2763019,5.6785289 4.2794619,5.6603896 4.2825819,5.6422432 4.2089898,5.5728973 4.1158658,5.5062828 4.0227377,5.4396699 3.9461929,5.3734852 3.9457649,5.3592106 3.9448849,5.3312906 3.9256049,5.3115578 3.6154775,5.0218116 3.5034319,4.9171306 3.4132318,4.8236975 3.415031,4.8141809 3.416871,4.8046609 3.386775,4.7526008 3.348247,4.6984899 3.2381485,4.5438711 3.018114,4.4681286 2.6790346,4.4681286 c -0.1602009,0 -0.2912769,-0.01168 -0.2912785,-0.025954 -2.4e-6,-0.014274 -0.1610345,-0.0274 -0.3578499,-0.02916 -0.1968224,-0.00173 -0.3773786,-0.015273 -0.4012425,-0.03002 -0.052586,-0.0325 -0.6943512,-0.045186 -0.69433584,-0.01372 1.2e-5,0.02628 -0.36212556,0.1015423 -0.59822088,0.1243303 C 0.09669237,4.5167122 0,4.4848924 0,4.3830073 0,4.2830323 0.01010641,4.2759836 0.35947155,4.1323501 0.74190239,3.9751212 0.98465236,3.8000198 1.0690227,3.6205297 1.2646395,3.2043723 1.8863856,2.9860116 2.4484761,3.1360591 c 0.1283817,0.034274 0.2641369,0.083278 0.3016794,0.108907 0.037536,0.025626 0.1173392,0.046594 0.1773265,0.046594 0.059984,0 0.1719056,0.022174 0.2487097,0.049266 0.0768,0.0271 0.1469729,0.04194 0.1559321,0.03298 0.00896,-0.00896 0.088289,0.023906 0.1762865,0.073035 0.087998,0.049127 0.2464745,0.1066923 0.3521698,0.1279183 0.105696,0.021226 0.2788185,0.090769 0.384717,0.1545375 0.1058992,0.063773 0.2310249,0.1159436 0.2780561,0.1159436 0.047032,0 0.1269009,0.032833 0.1774849,0.072967 0.085234,0.067622 0.1185913,0.071262 0.455325,0.049686 0.4721307,-0.030254 0.5190771,-0.042694 0.5190771,-0.1375416 0,-0.042126 0.024992,-0.1499555 0.055544,-0.2396166 C 5.8082323,3.3634378 5.7737603,3.2313975 5.600773,3.0928092 5.4443577,2.9674957 5.4561945,3.0275428 5.4182505,2.1668935 5.3980969,1.7097528 5.2881904,1.2030724 5.1489767,0.92549193 5.0788319,0.78562967 5.0581935,0.71109323 5.0827975,0.6864873 c 0.024608,-0.0246064 0.055112,-6.54e-4 0.097817,0.0768872 0.085146,0.15454495 0.1822471,0.2788525 0.2178224,0.2788525 0.066672,0 0.1383808,-0.11592627 0.1383808,-0.22370329 0,-0.14872754 -0.096082,-0.64050076 -0.1408088,-0.72069384 -0.079672,-0.14284224 0.01952,-0.12618959 0.1779705,0.02988001 0.1710737,0.16850217 0.3617922,0.56066166 0.3858522,0.79340029 l 0.010736,0.10381563 0.077272,-0.14569349 c 0.064656,-0.12190769 0.077272,-0.20057213 0.077272,-0.4818526 V 0.06122049 l 0.086513,0.08127508 c 0.063144,0.0593264 0.086513,0.11715966 0.086513,0.21414804 0,0.16049216 0.1294633,0.3823742 0.2113674,0.36225291 0.1084296,-0.0266336 0.162584,0.0386 0.1527208,0.18398012 -0.00512,0.075944 0.00384,0.12989496 0.020064,0.11989226 0.016184,-0.010006 0.086101,-0.1195289 0.1553673,-0.24338923 0.069264,-0.12386031 0.1346561,-0.21648404 0.1453097,-0.20583003 0.010656,0.01066 0.045808,-0.0209264 0.078112,-0.0701784 l 0.058744,-0.089547 0.081647,0.16713016 c 0.083707,0.17134882 0.1072857,0.41149945 0.054632,0.5564383 -0.045704,0.1258222 0.052744,0.095788 0.1910585,-0.05828 0.067224,-0.074879 0.1319208,-0.16142881 0.14378,-0.19233203 0.018536,-0.0483064 0.039424,-0.04256 0.1489537,0.04098 0.070064,0.05344 0.1324985,0.0932738 0.1387385,0.0885158 0.035968,-0.0274264 0.053432,-0.00226 0.020976,0.030173 -0.021352,0.021354 -0.0298,0.062326 -0.018784,0.091057 0.020784,0.054166 -0.1247737,0.3545923 -0.1718017,0.3545923 -0.014672,0 -0.02668,0.015574 -0.02668,0.034606 0,0.057486 0.096762,0.039346 0.2768409,-0.051907 0.093899,-0.04758 0.1849261,-0.086513 0.2022829,-0.086513 0.05188,0 0.1157225,0.1930528 0.1050001,0.3175044 -0.013584,0.1576948 0.021656,0.201572 0.1619289,0.201572 0.1004792,0 0.1190424,0.012166 0.1188624,0.077862 -1.176e-4,0.042826 -0.023272,0.122083 -0.051464,0.1761295 -0.0488,0.09356 -0.046464,0.1030516 0.0486,0.198118 0.080553,0.080554 0.1072297,0.09096 0.1380313,0.053846 0.021,-0.0253 0.1697913,-0.3246823 0.3306474,-0.6652886 0.1608561,-0.3406043 0.312661,-0.6422567 0.3373474,-0.6703386 0.024688,-0.02808 0.046824,-0.06312 0.049208,-0.0778617 0.0024,-0.01474 0.00822,-0.0345864 0.012976,-0.0441064 0.00472,-0.00952 0.011368,-0.02898 0.01468,-0.04326 0.00336,-0.0142736 0.018912,-0.0639064 0.034664,-0.11028437 0.025192,-0.0741872 0.033496,-0.0776833 0.06904,-0.0290736 0.040984,0.0560528 0.020568,0.5111458 -0.030888,0.6882993 -0.022128,0.076172 -0.017136,0.07452 0.064128,-0.021214 0.048464,-0.0571 0.088681,-0.1165936 0.089366,-0.1322115 6.544e-4,-0.01562 0.1336081,-0.2662359 0.2953882,-0.55692907 0.1617787,-0.29069376 0.2941427,-0.54561829 0.2941427,-0.56650022 0,-0.05856 0.05766,-0.0808771 0.149413,-0.0578464 0.07802,0.01958 0.08458,0.0399736 0.101846,0.31679433 0.01922,0.30802712 -0.01834,0.48771588 -0.152009,0.72725776 -0.122375,0.2193027 -2.62e-4,0.1390309 0.378774,-0.24913053 0.253256,-0.25930584 0.394226,-0.38044214 0.41113,-0.35328493 0.05393,0.0866311 0.03666,0.45162126 -0.02626,0.55507826 -0.03374,0.05548 -0.0531,0.122359 -0.04302,0.1486169 0.01007,0.02626 -0.02234,0.1010477 -0.07203,0.1661989 -0.121841,0.1597414 -0.114221,0.1734847 0.04528,0.081685 0.0746,-0.042934 0.126696,-0.092521 0.115772,-0.110195 -0.01092,-0.017674 -0.0029,-0.021626 0.01791,-0.00879 0.02078,0.012846 0.154396,-0.0456 0.296928,-0.1298675 0.249147,-0.1472996 0.309978,-0.1643049 0.280377,-0.078382 -0.0075,0.021934 -0.02107,0.109141 -0.03004,0.1938008 -0.01106,0.104357 -0.04046,0.1721515 -0.09132,0.2105146 -0.0683,0.051514 -0.06926,0.056787 -0.01082,0.058806 0.0353,0.0012 0.145052,-0.017834 0.243892,-0.04234 0.09884,-0.024506 0.187307,-0.03696 0.196594,-0.027673 0.03142,0.031426 -0.02002,0.1139357 -0.07103,0.1139357 -0.05559,0 -0.149549,0.081144 -0.149549,0.1291602 0,0.044954 -0.221605,0.2514953 -0.269838,0.2514953 -0.05041,0 -0.05501,0.056846 -0.007,0.086513 0.01903,0.01176 0.03461,0.066961 0.03461,0.1226622 0,0.091151 -0.01557,0.1051957 -0.155724,0.1404869 -0.16832,0.04238 -0.208717,0.1002057 -0.07001,0.1002057 0.05324,0 0.10719,0.032774 0.142401,0.086513 0.03118,0.04758 0.08292,0.086511 0.114994,0.086511 0.12664,0 0.139884,0.070692 0.04825,0.2575305 -0.06825,0.1391522 -0.118326,0.1926527 -0.222641,0.2378446 -0.07402,0.032066 -0.150053,0.058306 -0.168956,0.058306 -0.08481,0 -0.172788,0.1426423 -0.172788,0.2801505 0,0.083513 -0.02686,0.1794595 -0.06541,0.233584 -0.03598,0.05052 -0.07101,0.1074276 -0.07786,0.1264602 -0.0069,0.019034 -0.02605,0.030074 -0.04266,0.02454 -0.01662,-0.00554 -0.02068,0.01474 -0.0091,0.045053 0.01162,0.030313 0.0072,0.04648 -0.0099,0.035927 -0.03862,-0.023867 -0.21039,0.175626 -0.21039,0.2443372 0,0.02772 -0.03893,0.1272296 -0.08651,0.2211266 -0.04758,0.093899 -0.08651,0.1990801 -0.08651,0.2337353 0,0.080336 -0.308077,0.3858181 -0.408622,0.4051814 -0.10412,0.020054 -0.1498679,0.052013 -0.1271215,0.088818 0.010488,0.016966 -0.1177305,0.035354 -0.2849273,0.040866 -0.2330274,0.00768 -0.3017098,0.020906 -0.2942082,0.056674 0.00768,0.03674 -0.02908,0.041726 -0.1730257,0.023454 -0.1005472,-0.012766 -0.2114945,-0.031374 -0.2465513,-0.041346 -0.047824,-0.013614 -0.060672,-0.0022 -0.051464,0.045613 0.01632,0.084725 0.5146131,0.4646793 0.5879492,0.4483147 0.060872,-0.013586 0.2479297,0.165295 0.3580385,0.3423951 0.035488,0.057073 0.1667353,0.213526 0.2916663,0.347673 0.277208,0.2976546 0.607804,0.7244623 0.607804,0.7846895 0,0.024344 -0.0184,0.04072 -0.04089,0.036392 -0.02878,-0.00552 -0.02442,0.040464 0.01475,0.15544 0.08372,0.2457026 0.172495,0.3849298 0.391338,0.6137342 0.196441,0.2053849 0.272144,0.3396394 0.21235,0.3765946 -0.01697,0.010488 -0.08267,-0.019168 -0.146002,-0.065896 -0.120294,-0.08875 -0.177812,-0.089632 -0.104758,-0.0016 0.05389,0.064928 0.01422,0.142128 -0.04694,0.09137 -0.02923,-0.024256 -0.05418,-0.024016 -0.07898,8e-4 -0.02526,0.025256 -0.05953,0.00664 -0.113048,-0.061376 -0.04224,-0.053704 -0.08154,-0.089846 -0.08733,-0.080329 -0.0058,0.00952 -0.04331,-0.01236 -0.08338,-0.048624 -0.07985,-0.072264 -0.09746,-0.027424 -0.03503,0.089214 0.0607,0.11342 -0.01378,0.1451736 -0.107217,0.045712 z"
       id="path2161" />
    <text
       id="text36"
       y="6.5047703"
       x="14.434428"
       style="font-style:normal;font-weight:normal;font-size:7.05551px;line-height:1.25;font-family:sans-serif;fill:#000000;fill-opacity:1;stroke:none;stroke-width:0.176388"
       xml:space="preserve"><tspan
         style="stroke-width:0.176388"
         y="6.5047703"
         x="14.434428"
         id="tspan34"
         sodipodi:role="line">duckpuzzles</tspan></text>
  </g>
</svg>
