<?xml version="1.0" encoding="UTF-8" standalone="no"?>
<!-- Created with Inkscape (http://www.inkscape.org/) -->
<svg
   xmlns:dc="http://purl.org/dc/elements/1.1/"
   xmlns:cc="http://web.resource.org/cc/"
   xmlns:rdf="http://www.w3.org/1999/02/22-rdf-syntax-ns#"
   xmlns:svg="http://www.w3.org/2000/svg"
   xmlns="http://www.w3.org/2000/svg"
   xmlns:sodipodi="http://sodipodi.sourceforge.net/DTD/sodipodi-0.dtd"
   xmlns:inkscape="http://www.inkscape.org/namespaces/inkscape"
   id="svg2"
   sodipodi:version="0.32"
   inkscape:version="0.45.1"
   width="464"
   height="308"
   version="1.0"
   sodipodi:docbase="C:\Documents and Settings\Leylosss\Belgelerim"
   sodipodi:docname="Duck_Sotka1.svg"
   inkscape:output_extension="org.inkscape.output.svg.inkscape">
  <metadata
     id="metadata7">
    <rdf:RDF>
      <cc:Work
         rdf:about="">
        <dc:format>image/svg+xml</dc:format>
        <dc:type
           rdf:resource="http://purl.org/dc/dcmitype/StillImage" />
      </cc:Work>
    </rdf:RDF>
  </metadata>
  <defs
     id="defs5" />
  <sodipodi:namedview
     inkscape:window-height="573"
     inkscape:window-width="744"
     inkscape:pageshadow="2"
     inkscape:pageopacity="0.0"
     guidetolerance="10.0"
     gridtolerance="10.0"
     objecttolerance="10.0"
     borderopacity="1.0"
     bordercolor="#666666"
     pagecolor="#ffffff"
     id="base"
     inkscape:zoom="1.4202586"
     inkscape:cx="232"
     inkscape:cy="122.67029"
     inkscape:window-x="66"
     inkscape:window-y="87"
     inkscape:current-layer="svg2" />
  <path
     style="fill:#000000"
     d="M 343.99439,267.49403 C 342.68588,266.10118 341.13934,265.14129 340.55764,265.36093 C 339.97594,265.58058 337.51568,263.90172 335.09041,261.63014 C 330.97561,257.77612 330.82942,257.71682 332.90364,260.74318 C 336.16012,265.49448 334.48162,266.85808 330.32641,262.83691 C 328.42993,261.00161 326.06049,259.6315 325.06098,259.79222 C 324.01043,259.96114 321.54711,258.40472 319.22252,256.10324 C 315.48456,252.40246 315.1626,252.2702 314.65129,254.22548 C 314.16735,256.07606 313.88479,256.16468 312.30061,254.96268 C 310.73946,253.77815 310.67289,253.78953 311.8,255.04823 C 312.515,255.8467 313.5275,256.5 314.05,256.5 C 314.5725,256.5 315.03827,256.95 315.08504,257.5 C 315.13181,258.05 315.60366,259.02244 316.1336,259.66097 C 317.44888,261.2458 315.55052,262.3095 312.90522,261.46992 C 311.08929,260.89356 310.96035,261.0574 311.87899,262.77389 C 313.21022,265.26131 312.45096,266.00239 308.58333,265.99062 C 304.32651,265.97766 296.09536,261.03072 291.95182,255.99505 C 290.05332,253.68778 286.59788,249.88786 284.27307,247.55079 C 280.34406,243.60104 279.39259,243.18044 270.77307,241.58313 C 265.67288,240.638 260.375,239.72597 259,239.5564 C 257.625,239.38684 254.32519,238.29228 251.66709,237.12405 C 249.009,235.95582 246.55398,235 246.21151,235 C 244.72546,235 230,227.60539 230,226.85915 C 230,226.40515 227.8625,224.90522 225.25,223.52597 C 222.6375,222.14672 217.35,218.99526 213.5,216.52272 C 209.65,214.05018 205.0375,211.36904 203.25,210.56462 C 201.4625,209.76021 200,208.63548 200,208.06522 C 200,206.68973 192.38665,201.69425 190.02522,201.52028 C 189.00312,201.44498 187.56681,200.90665 186.83343,200.324 C 186.10004,199.74135 183.08335,198.47594 180.12966,197.51198 C 177.17598,196.54802 173.89551,194.89551 172.83973,193.83973 C 170.79312,191.79312 166.47029,189.67476 164,189.5079 C 163.175,189.45218 162.57446,188.97761 162.66547,188.45329 C 162.75648,187.92898 160.6291,185.925 157.93794,184 C 155.24679,182.075 153.03483,180.1625 153.02247,179.75 C 152.9983,178.94326 152.43996,178.3729 143.478,170 C 140.24017,166.975 137.6336,164.275 137.6856,164 C 137.73761,163.725 136.86913,162.22058 135.75565,160.65684 C 132.57408,156.18874 126.21564,154 116.41709,154 C 111.78769,154 107.99995,153.6625 107.9999,153.25 C 107.99984,152.8375 103.34641,152.45829 97.658939,152.40731 C 91.971466,152.35633 86.753852,151.96591 86.064241,151.5397 C 84.544608,150.60052 65.999267,150.23399 65.999696,151.14315 C 66.000055,151.90251 55.535199,154.07746 48.712646,154.73598 C 41.79418,155.40376 39,154.48432 39,151.53996 C 39,148.65096 39.292108,148.44728 49.387811,144.29664 C 60.439109,139.75312 67.453953,134.6931 69.892037,129.5063 C 75.544869,117.48041 93.511752,111.17036 109.75474,115.50633 C 113.46463,116.49667 117.38763,117.91288 118.47251,118.65347 C 119.55738,119.39406 121.86331,120 123.59678,120 C 125.33025,120 128.56444,120.64068 130.78386,121.42374 C 133.00329,122.2068 135.03102,122.63565 135.28992,122.37674 C 135.54883,122.11783 137.84123,123.06757 140.38414,124.48726 C 142.92705,125.90695 147.50662,127.57039 150.56095,128.18379 C 153.61529,128.79719 158.6181,130.80677 161.6783,132.64953 C 164.7385,134.49229 168.35431,136 169.71342,136 C 171.07254,136 173.38052,136.94885 174.84227,138.10856 C 177.30529,140.06264 178.26925,140.16783 188,139.54433 C 201.64338,138.67014 203,138.31067 203,135.56973 C 203,134.35233 203.72232,131.23639 204.60515,128.64542 C 206.84321,122.07708 205.84691,118.26147 200.84808,114.25661 C 196.32807,110.63536 196.67014,112.37065 195.57363,87.5 C 194.9912,74.289802 191.81525,59.648027 187.79232,51.626658 C 185.76531,47.584985 185.16892,45.431076 185.87996,44.720036 C 186.591,44.008997 187.47253,44.701899 188.70662,46.941863 C 191.16711,51.407813 193.9731,55 195.00115,55 C 196.92773,55 199,51.650007 199,48.535536 C 199,44.23768 196.22346,30.026706 194.93097,27.709323 C 192.62877,23.581551 195.49503,24.062766 200.07387,28.572761 C 205.01748,33.442031 210.52874,44.774449 211.22401,51.5 L 211.53414,54.5 L 213.76707,50.289838 C 215.63546,46.767003 216,44.4938 216,36.365524 L 216,26.651372 L 218.5,29 C 220.32483,30.714336 221,32.385615 221,35.188338 C 221,39.826154 224.74116,46.237974 227.10797,45.65654 C 230.24132,44.886797 231.80624,46.772022 231.52121,50.973077 C 231.37232,53.167655 231.63318,54.72671 232.10089,54.437644 C 232.56861,54.148578 234.58899,50.983593 236.59062,47.404342 C 238.59225,43.825092 240.48184,41.148503 240.7897,41.456366 C 241.09756,41.764229 242.11333,40.851649 243.04696,39.428411 L 244.74447,36.840704 L 247.10387,41.670352 C 249.52281,46.621888 250.20417,53.56164 248.68261,57.75 C 247.36173,61.385954 250.20684,60.518058 254.20372,56.065797 C 256.14621,53.901986 258.0159,51.400937 258.35859,50.50791 C 258.89429,49.111901 259.49786,49.277951 262.66299,51.692113 C 264.68772,53.236451 266.49184,54.3875 266.67216,54.25 C 267.7115,53.457435 268.2163,54.183702 267.27814,55.121855 C 266.66112,55.738875 266.41695,56.922968 266.73552,57.753171 C 267.33616,59.318406 263.12989,68 261.77089,68 C 261.3469,68 261,68.45 261,69 C 261,70.661266 263.79616,70.136986 269,67.5 C 271.71343,66.125 274.34388,65 274.84544,65 C 276.3446,65 278.18953,70.578752 277.87969,74.175059 C 277.48708,78.732037 278.50567,80 282.55902,80 C 285.4626,80 285.99904,80.351395 285.99384,82.25 C 285.99045,83.4875 285.3212,85.777862 284.50661,87.339693 C 283.09649,90.043352 283.16376,90.317611 285.91097,93.064817 C 288.23876,95.392606 289.00963,95.693317 289.89974,94.620802 C 290.50658,93.889606 294.80627,85.238301 299.4546,75.395678 C 304.10293,65.553055 308.48974,56.836061 309.20306,56.02458 C 309.91638,55.2131 310.55625,54.2006 310.625,53.77458 C 310.69375,53.348561 310.8625,52.775 311,52.5 C 311.1375,52.225 311.32837,51.6625 311.42416,51.25 C 311.51994,50.8375 311.97072,49.403376 312.42588,48.063058 C 313.15389,45.919262 313.3939,45.818201 314.42106,47.222931 C 315.60554,48.842799 315.01534,61.993725 313.52842,67.113002 C 312.88908,69.314176 313.03335,69.266454 315.38159,66.5 C 316.78216,64.85 317.94426,63.130748 317.96404,62.67944 C 317.98382,62.228132 321.825,54.985912 326.5,46.585618 C 331.175,38.185324 335,30.818634 335,30.215195 C 335,28.523045 336.66597,27.878061 339.31768,28.543597 C 341.57225,29.109457 341.76167,29.69868 342.26074,37.698132 C 342.81607,46.599322 341.73074,51.79186 337.86806,58.714028 C 334.33174,65.051334 337.85849,62.73169 348.81367,51.514792 C 356.13213,44.021493 360.20578,40.520996 360.69428,41.305755 C 362.25262,43.809189 361.75382,54.356463 359.9357,57.346125 C 358.9607,58.949382 358.40121,60.881974 358.69239,61.640774 C 358.98357,62.399574 358.0469,64.560793 356.6109,66.443483 C 353.09001,71.059609 353.31016,71.456741 357.91942,68.803987 C 360.0751,67.563335 361.58057,66.130369 361.26491,65.619619 C 360.94925,65.108869 361.18221,64.99458 361.78261,65.365643 C 362.383,65.736707 366.24421,64.047917 370.36307,61.612777 C 377.56276,57.356208 379.32063,56.864783 378.46526,59.347766 C 378.24694,59.981495 377.85633,62.501656 377.59723,64.948125 C 377.27785,67.963757 376.428,69.92286 374.95829,71.031459 C 372.98475,72.520109 372.95669,72.672411 374.64523,72.730763 C 375.66535,72.766016 378.8369,72.21542 381.69312,71.507216 C 384.54933,70.799011 387.10583,70.439162 387.37422,70.707551 C 388.28229,71.615626 386.79579,74 385.32158,74 C 383.71502,74 381,76.344867 381,77.732405 C 381,79.031477 374.5962,85 373.20239,85 C 371.74576,85 371.61277,86.642646 373,87.5 C 373.55,87.839919 374,89.434997 374,91.044619 C 374,93.678629 373.55013,94.084483 369.5,95.104317 C 364.63597,96.329093 363.4686,98 367.47695,98 C 369.01554,98 370.57445,98.947087 371.59196,100.5 C 372.49289,101.875 373.98827,103 374.91501,103 C 378.57457,103 378.95729,105.04278 376.30929,110.44195 C 374.33712,114.46311 372.88995,116.00911 369.87553,117.31505 C 367.73644,118.24177 365.53937,119 364.99314,119 C 362.54233,119 360,123.122 360,127.09563 C 360,129.50895 359.22364,132.28156 358.10992,133.84563 C 357.07038,135.30553 356.05788,136.95 355.85992,137.5 C 355.66196,138.05 355.10729,138.3691 354.62732,138.20911 C 354.14734,138.04911 354.02969,138.63499 354.36586,139.51104 C 354.70204,140.3871 354.57326,140.8543 354.0797,140.54926 C 352.96383,139.85961 348,145.62441 348,147.60997 C 348,148.41105 346.875,151.28657 345.5,154 C 344.125,156.71343 343,159.75289 343,160.75435 C 343,163.07584 334.09735,171.9035 331.19184,172.46305 C 328.18304,173.0425 326.86104,173.96615 327.51833,175.02966 C 327.82136,175.51997 324.1162,176.05137 319.28464,176.21056 C 312.55075,176.43243 310.56601,176.81477 310.78278,177.84835 C 311.00545,178.91004 309.94248,179.05411 305.78278,178.52601 C 302.87725,178.15714 299.67114,177.61943 298.65808,177.3311 C 297.27615,176.93779 296.90477,177.26697 297.17096,178.64921 C 297.64246,181.09753 312.04193,192.07723 314.16116,191.60436 C 315.92036,191.21183 321.3257,196.38096 324.5076,201.49869 C 325.53302,203.14797 329.3258,207.66906 332.936,211.54555 C 340.94659,220.14699 350.5,232.48067 350.5,234.22108 C 350.5,234.92449 349.96831,235.39777 349.31848,235.27283 C 348.48663,235.11288 348.61282,236.44226 349.74487,239.76463 C 352.16415,246.86482 354.72954,250.88814 361.05352,257.5 C 366.73019,263.43509 368.91781,267.31473 367.18993,268.38262 C 366.69964,268.68563 364.80106,267.82878 362.97086,266.4785 C 359.49467,263.91385 357.83251,263.88833 359.94359,266.43203 C 361.50069,268.30822 360.35459,270.53917 358.58718,269.07235 C 357.74249,268.37132 357.02149,268.37851 356.30489,269.09511 C 355.57485,269.82515 354.58474,269.28753 353.03811,267.32132 C 351.81752,265.76959 350.68186,264.725 350.51442,265 C 350.34697,265.275 349.26273,264.64276 348.10499,263.59501 C 345.79751,261.50678 345.28873,262.80246 347.09264,266.1731 C 348.84673,269.45064 346.69455,270.36822 343.99439,267.49403 z "
     id="path2161" />
</svg>
