<?xml version="1.0" encoding="UTF-8" standalone="no"?>
<svg
   xmlns:dc="http://purl.org/dc/elements/1.1/"
   xmlns:cc="http://creativecommons.org/ns#"
   xmlns:rdf="http://www.w3.org/1999/02/22-rdf-syntax-ns#"
   xmlns:svg="http://www.w3.org/2000/svg"
   xmlns="http://www.w3.org/2000/svg"
   xmlns:sodipodi="http://sodipodi.sourceforge.net/DTD/sodipodi-0.dtd"
   xmlns:inkscape="http://www.inkscape.org/namespaces/inkscape"
   sodipodi:docname="duck-logo-text-48.svg"
   inkscape:version="1.0beta2 (2b71d25, 2019-12-03)"
   id="svg8"
   version="1.1"
   viewBox="0 0 210 297"
   height="297mm"
   width="210mm">
  <defs
     id="defs2" />
  <sodipodi:namedview
     inkscape:window-maximized="0"
     inkscape:window-y="116"
     inkscape:window-x="641"
     inkscape:window-height="1209"
     inkscape:window-width="1600"
     showgrid="false"
     inkscape:document-rotation="0"
     inkscape:current-layer="layer1"
     inkscape:document-units="mm"
     inkscape:cy="219.28681"
     inkscape:cx="333.00871"
     inkscape:zoom="1.5004828"
     inkscape:pageshadow="2"
     inkscape:pageopacity="0.0"
     borderopacity="1.0"
     bordercolor="#666666"
     pagecolor="#ffffff"
     id="base" />
  <metadata
     id="metadata5">
    <rdf:RDF>
      <cc:Work
         rdf:about="">
        <dc:format>image/svg+xml</dc:format>
        <dc:type
           rdf:resource="http://purl.org/dc/dcmitype/StillImage" />
        <dc:title></dc:title>
      </cc:Work>
    </rdf:RDF>
  </metadata>
  <g
     id="layer1"
     inkscape:groupmode="layer"
     inkscape:label="Layer 1">
    <path
       inkscape:connector-curvature="0"
       style="fill:#000000;stroke-width:0.0519078"
       d="m 15.831592,12.593473 c -0.06792,-0.0723 -0.1482,-0.122126 -0.178393,-0.110726 -0.03019,0.0114 -0.157903,-0.07574 -0.283792,-0.193656 -0.213591,-0.200054 -0.22118,-0.203132 -0.11351,-0.04604 0.169037,0.246631 0.08191,0.317411 -0.13378,0.108682 -0.09844,-0.09527 -0.221435,-0.166387 -0.273316,-0.158043 -0.05453,0.0088 -0.182397,-0.07202 -0.303062,-0.191488 -0.194029,-0.192099 -0.210743,-0.198965 -0.237283,-0.09747 -0.02512,0.09606 -0.03979,0.10066 -0.122018,0.03827 -0.08104,-0.06149 -0.08449,-0.0609 -0.02599,0.0044 0.03711,0.04145 0.08967,0.07536 0.116794,0.07536 0.02712,0 0.0513,0.02336 0.05373,0.05191 0.0024,0.02855 0.02692,0.07903 0.05443,0.11217 0.06827,0.08226 -0.03027,0.13748 -0.167577,0.0939 -0.09426,-0.02992 -0.100954,-0.02141 -0.05327,0.06769 0.0691,0.129117 0.02969,0.167585 -0.171069,0.166973 -0.220964,-5.88e-4 -0.648224,-0.257456 -0.863306,-0.518848 -0.09855,-0.119764 -0.277912,-0.317011 -0.398588,-0.438323 -0.203946,-0.205023 -0.253335,-0.226855 -0.700756,-0.309768 -0.26474,-0.04906 -0.539741,-0.0964 -0.611114,-0.105203 -0.07137,-0.0088 -0.24266,-0.06562 -0.380636,-0.126258 -0.137976,-0.06064 -0.26541,-0.110256 -0.283187,-0.110256 -0.07714,0 -0.8415048,-0.383838 -0.8415048,-0.422573 0,-0.02357 -0.110953,-0.101425 -0.246562,-0.173019 -0.135609,-0.07159 -0.410072,-0.23518 -0.609917,-0.3635234 -0.199845,-0.128344 -0.4392702,-0.267517 -0.5320562,-0.309272 -0.09278,-0.04176 -0.1687,-0.100137 -0.1687,-0.129738 0,-0.0714 -0.395193,-0.330703 -0.517769,-0.339733 -0.05306,-0.0039 -0.127611,-0.03185 -0.165679,-0.0621 C 7.635641,9.0765506 7.479052,9.0108606 7.325733,8.9608256 7.172413,8.9107856 7.002131,8.8250096 6.947328,8.7702063 6.841093,8.6639713 6.616704,8.5540123 6.488477,8.5453503 c -0.04282,-0.0029 -0.074,-0.02753 -0.06927,-0.05474 0.0047,-0.02722 -0.105703,-0.131239 -0.245396,-0.231161 -0.139692,-0.09992 -0.25451,-0.199197 -0.255151,-0.220609 -0.0013,-0.04188 -0.03024,-0.07148 -0.495433,-0.5061 -0.168069,-0.157022 -0.30337,-0.297172 -0.300671,-0.311447 0.0027,-0.01428 -0.04238,-0.09237 -0.10018,-0.173537 -0.165148,-0.231929 -0.495201,-0.345543 -1.003822,-0.345543 -0.240302,0 -0.436916,-0.01752 -0.436918,-0.03893 -4e-6,-0.02141 -0.241553,-0.0411 -0.536777,-0.04374 -0.295225,-0.0026 -0.56606,-0.02291 -0.601856,-0.04503 -0.07888,-0.04875 -1.04153,-0.06778 -1.041507,-0.02058 1.8e-5,0.03942 -0.54319,0.152314 -0.897334,0.186496 C 0.145039,6.7750893 0,6.7273593 0,6.5745313 c 0,-0.149963 0.01516,-0.160536 0.539209,-0.375987 0.573648,-0.235844 0.937774,-0.498497 1.06433,-0.767733 0.293426,-0.624238 1.226048,-0.95178 2.069186,-0.726708 0.192573,0.05141 0.396207,0.124918 0.452521,0.163361 0.05631,0.03844 0.176009,0.06989 0.26599,0.06989 0.08998,0 0.25786,0.03326 0.373066,0.0739 0.115205,0.04065 0.22046,0.06291 0.233899,0.04947 0.01344,-0.01344 0.132433,0.03586 0.26443,0.109553 0.131997,0.07369 0.369713,0.160039 0.528257,0.191878 0.158544,0.03184 0.418229,0.136154 0.577077,0.231807 0.158849,0.09566 0.346538,0.173916 0.417086,0.173916 0.07055,0 0.190351,0.04925 0.266228,0.109451 0.12785,0.101433 0.177887,0.106893 0.682989,0.07453 0.708198,-0.04538 0.778618,-0.06404 0.778618,-0.206313 0,-0.06319 0.03749,-0.224934 0.08332,-0.359426 C 8.712379,5.0451723 8.660666,4.8471113 8.401185,4.6392283 8.166561,4.4512573 8.184317,4.5413283 8.1274,3.2503503 8.09717,2.5646373 7.93231,1.8046143 7.723489,1.3882423 7.618271,1.1784483 7.587314,1.0666433 7.624219,1.0297343 c 0.03691,-0.03691 0.08267,-9.81e-4 0.146726,0.115331 0.127719,0.231818 0.273372,0.41828 0.326735,0.41828 0.100005,0 0.207572,-0.17389 0.207572,-0.335556 0,-0.223092 -0.144124,-0.96075402 -0.211214,-1.08104402 -0.119503,-0.214264 0.02928,-0.189285 0.266956,0.04482 0.256612,0.252754 0.5426902,0.84099502 0.5787802,1.19010402 l 0.0161,0.155724 0.115907,-0.218541 c 0.09698,-0.182862 0.115907,-0.300859 0.115907,-0.72278102 v -0.50424 l 0.12977,0.121913 c 0.09472,0.08899 0.12977,0.17574 0.12977,0.321223 0,0.240739 0.194195,0.57356302 0.317051,0.54338102 0.162646,-0.03995 0.2438768,0.0579 0.229082,0.275971 -0.0077,0.113916 0.0058,0.194843 0.03009,0.179839 0.02428,-0.01501 0.129152,-0.179294 0.233052,-0.365085 0.1039,-0.18579102 0.201985,-0.32472702 0.217965,-0.30874602 0.01598,0.01599 0.06871,-0.03139 0.11717,-0.105268 l 0.08811,-0.134321 0.122471,0.250696 c 0.125562,0.25702402 0.16093,0.61725102 0.08195,0.83466002 -0.06856,0.188734 0.07912,0.143683 0.286589,-0.08742 0.10083,-0.112319 0.197882,-0.242144 0.21567,-0.288499 0.02781,-0.07246 0.05914,-0.06384 0.223432,0.06147 0.1051,0.08016 0.198748,0.139911 0.208108,0.132774 0.05395,-0.04114 0.08015,-0.0034 0.03146,0.04526 -0.03203,0.03203 -0.0447,0.09349 -0.02817,0.136586 0.03118,0.08125 -0.187161,0.53189 -0.257703,0.53189 -0.02201,0 -0.04002,0.02336 -0.04002,0.05191 0,0.08623 0.145143,0.05902 0.415263,-0.07786 0.140848,-0.07137 0.277389,-0.12977 0.303424,-0.12977 0.07782,0 0.173585,0.28958 0.157502,0.476258 -0.02038,0.236543 0.03249,0.302359 0.242893,0.302359 0.150719,0 0.178564,0.01825 0.178294,0.116793 -1.75e-4,0.06424 -0.03491,0.183125 -0.0772,0.264195 -0.0732,0.14034 -0.0697,0.154578 0.0729,0.297178 0.12083,0.120832 0.160845,0.136441 0.207048,0.08077 0.0315,-0.03795 0.254688,-0.487025 0.495973,-0.997936 0.241285,-0.510908 0.468993,-0.963388 0.506022,-1.005511 0.03703,-0.04212 0.07024,-0.09468 0.07381,-0.116793 0.0036,-0.02211 0.01232,-0.05188 0.01946,-0.06616 0.0071,-0.01428 0.01705,-0.04347 0.02202,-0.06489 0.005,-0.02141 0.02837,-0.09586 0.052,-0.165427 0.03779,-0.111281 0.05025,-0.116525 0.103566,-0.04361 0.06148,0.08408 0.03085,0.766721 -0.04633,1.032452 -0.03319,0.114258 -0.0257,0.11178 0.09619,-0.03182 0.0727,-0.08565 0.133022,-0.174891 0.13405,-0.198318 9.81e-4,-0.02343 0.200413,-0.399355 0.443083,-0.835396 0.24267,-0.43604202 0.441217,-0.81843002 0.441217,-0.84975302 0,-0.08784 0.08648,-0.121316 0.22412,-0.08677 0.117032,0.02937 0.126863,0.05996 0.152769,0.475193 0.02883,0.46204202 -0.02751,0.73157602 -0.228014,1.09089002 -0.183563,0.328955 -3.93e-4,0.208547 0.568163,-0.373697 0.379885,-0.38896002 0.59134,-0.57066502 0.616697,-0.52992902 0.08089,0.129947 0.055,0.67743402 -0.03938,0.83262002 -0.05061,0.08322 -0.07965,0.183539 -0.06454,0.222926 0.01511,0.03939 -0.03351,0.151572 -0.108047,0.249299 -0.182762,0.239613 -0.171334,0.260228 0.06792,0.122528 0.111898,-0.0644 0.190043,-0.138781 0.173659,-0.165293 -0.01638,-0.02651 -0.0043,-0.03244 0.02687,-0.01318 0.03116,0.01927 0.231593,-0.0684 0.445394,-0.194802 0.373721,-0.22095 0.464967,-0.246458 0.420566,-0.117573 -0.01134,0.0329 -0.03161,0.163712 -0.04506,0.290702 -0.01658,0.156536 -0.06069,0.258228 -0.136982,0.315773 -0.102443,0.07727 -0.103899,0.08518 -0.01624,0.08821 0.05295,0.0018 0.217579,-0.02675 0.36584,-0.06351 0.148258,-0.03676 0.280961,-0.05544 0.294892,-0.04151 0.04714,0.04714 -0.03002,0.170904 -0.106547,0.170904 -0.08339,0 -0.224324,0.121717 -0.224324,0.193741 0,0.06743 -0.332408,0.377244 -0.404758,0.377244 -0.07561,0 -0.08251,0.08527 -0.01051,0.12977 0.02855,0.01764 0.05191,0.100442 0.05191,0.183994 0,0.136727 -0.02335,0.157794 -0.233586,0.210731 -0.252481,0.06357 -0.313078,0.150309 -0.105012,0.150309 0.07986,0 0.160784,0.04916 0.213601,0.12977 0.04677,0.07137 0.124387,0.129767 0.172492,0.129767 0.18996,0 0.209826,0.106038 0.07237,0.386297 -0.102372,0.208729 -0.17749,0.28898 -0.333963,0.356768 -0.111036,0.0481 -0.22508,0.08746 -0.253435,0.08746 -0.127215,0 -0.259183,0.213964 -0.259183,0.420227 0,0.12527 -0.0403,0.26919 -0.09811,0.350377 -0.05396,0.07578 -0.106518,0.161142 -0.116794,0.189691 -0.01028,0.02855 -0.03907,0.04511 -0.06398,0.03681 -0.02492,-0.0083 -0.03102,0.02211 -0.01358,0.06758 0.01744,0.04547 0.01077,0.06972 -0.01485,0.05389 -0.05792,-0.0358 -0.315585,0.26344 -0.315585,0.366507 0,0.04158 -0.05839,0.190845 -0.12977,0.331691 -0.07137,0.140849 -0.129769,0.298621 -0.129769,0.350604 0,0.120504 -0.462117,0.578729 -0.612936,0.607774 -0.156181,0.03008 -0.224803,0.07802 -0.190684,0.133227 0.01573,0.02545 -0.176596,0.05303 -0.427392,0.0613 -0.349542,0.01152 -0.452566,0.03136 -0.441313,0.08501 0.01156,0.05511 -0.04362,0.06259 -0.25954,0.03518 -0.150821,-0.01915 -0.317242,-0.04706 -0.369828,-0.06202 -0.07173,-0.02042 -0.09101,-0.0033 -0.07719,0.06842 0.02448,0.127088 0.771922,0.697021 0.881926,0.672474 0.09131,-0.02038 0.371896,0.2479433 0.53706,0.5135943 0.05323,0.08561 0.250103,0.32029 0.437501,0.521511 0.415813,0.4464834 0.911709,1.0866964 0.911709,1.1770384 0,0.03651 -0.0276,0.06108 -0.06133,0.05459 -0.04318,-0.0083 -0.03663,0.0607 0.02213,0.233161 0.125579,0.368555 0.258743,0.577396 0.587008,0.920604 0.294663,0.308078 0.408218,0.509461 0.318527,0.564893 -0.02545,0.01573 -0.124002,-0.02875 -0.219004,-0.09884 -0.180441,-0.133125 -0.26672,-0.134449 -0.157138,-0.0024 0.08083,0.09739 0.02133,0.213193 -0.07041,0.137054 -0.04385,-0.03639 -0.08127,-0.03602 -0.118468,0.0012 -0.0379,0.03789 -0.08929,0.01 -0.169572,-0.09207 -0.06336,-0.08055 -0.122307,-0.134769 -0.130998,-0.120494 -0.0087,0.01428 -0.06497,-0.01854 -0.12507,-0.07293 -0.119776,-0.108395 -0.146186,-0.04114 -0.05255,0.133823 0.09105,0.17013 -0.02067,0.21776 -0.160825,0.06857 z"
       id="path2161" />
    <text
       id="text36"
       y="9.757185"
       x="21.651709"
       style="font-style:normal;font-weight:normal;font-size:10.5833px;line-height:1.25;font-family:sans-serif;fill:#000000;fill-opacity:1;stroke:none;stroke-width:0.264583"
       xml:space="preserve"><tspan
         style="stroke-width:0.264583"
         y="9.757185"
         x="21.651709"
         id="tspan34"
         sodipodi:role="line">duckpuzzles</tspan></text>
  </g>
</svg>
